<svg width="24" height="15" viewBox="0 0 24 15" fill="none" xmlns="http://www.w3.org/2000/svg">
<path d="M2 15C1.64583 15 1.34917 14.88 1.11 14.64C0.87 14.4008 0.75 14.1042 0.75 13.75C0.75 13.3958 0.87 13.0992 1.11 12.86C1.34917 12.62 1.64583 12.5 2 12.5H22C22.3542 12.5 22.6508 12.62 22.89 12.86C23.13 13.0992 23.25 13.3958 23.25 13.75C23.25 14.1042 23.13 14.4008 22.89 14.64C22.6508 14.88 22.3542 15 22 15H2ZM2 8.75C1.64583 8.75 1.34917 8.63 1.11 8.39C0.87 8.15083 0.75 7.85417 0.75 7.5C0.75 7.14583 0.87 6.84875 1.11 6.60875C1.34917 6.36958 1.64583 6.25 2 6.25H22C22.3542 6.25 22.6508 6.36958 22.89 6.60875C23.13 6.84875 23.25 7.14583 23.25 7.5C23.25 7.85417 23.13 8.15083 22.89 8.39C22.6508 8.63 22.3542 8.75 22 8.75H2ZM2 2.5C1.64583 2.5 1.34917 2.38042 1.11 2.14125C0.87 1.90125 0.75 1.60417 0.75 1.25C0.75 0.895833 0.87 0.59875 1.11 0.35875C1.34917 0.119584 1.64583 0 2 0H22C22.3542 0 22.6508 0.119584 22.89 0.35875C23.13 0.59875 23.25 0.895833 23.25 1.25C23.25 1.60417 23.13 1.90125 22.89 2.14125C22.6508 2.38042 22.3542 2.5 22 2.5H2Z" fill="black"/>
</svg>
