<svg width="7" height="4" viewBox="0 0 7 4" fill="none" xmlns="http://www.w3.org/2000/svg">
<path d="M3.5 4C3.41629 4 3.33531 3.98473 3.25704 3.9542C3.17836 3.92366 3.11285 3.88295 3.06054 3.83206L0.172645 1.0229C0.0575483 0.910942 0 0.768447 0 0.595419C0 0.422392 0.0575483 0.279898 0.172645 0.167939C0.287743 0.0559794 0.43423 0 0.612108 0C0.789985 0 0.936472 0.0559794 1.05157 0.167939L3.5 2.54962L5.94843 0.167939C6.06353 0.0559794 6.21001 0 6.38789 0C6.56577 0 6.71226 0.0559794 6.82735 0.167939C6.94245 0.279898 7 0.422392 7 0.595419C7 0.768447 6.94245 0.910942 6.82735 1.0229L3.93946 3.83206C3.87668 3.89313 3.80867 3.93628 3.73543 3.96153C3.66218 3.98718 3.58371 4 3.5 4Z" fill="#929292"/>
</svg>
