<svg width="17" height="17" viewBox="0 0 17 17" fill="none" xmlns="http://www.w3.org/2000/svg">
<path d="M7.10278 13.3767C8.48901 13.3767 9.76733 12.9285 10.8132 12.1814L14.7478 16.116C14.9304 16.2986 15.1711 16.3899 15.4285 16.3899C15.968 16.3899 16.3499 15.9749 16.3499 15.4436C16.3499 15.1946 16.2668 14.9539 16.0842 14.7795L12.1746 10.8616C12.9963 9.78247 13.4861 8.44604 13.4861 6.99341C13.4861 3.48218 10.614 0.610107 7.10278 0.610107C3.59985 0.610107 0.719482 3.47388 0.719482 6.99341C0.719482 10.5046 3.59155 13.3767 7.10278 13.3767ZM7.10278 11.9988C4.36353 11.9988 2.09741 9.73267 2.09741 6.99341C2.09741 4.25415 4.36353 1.98804 7.10278 1.98804C9.84204 1.98804 12.1082 4.25415 12.1082 6.99341C12.1082 9.73267 9.84204 11.9988 7.10278 11.9988Z" fill="#3C3C43" fill-opacity="0.6"/>
</svg>
