<svg width="134" height="37" viewBox="0 0 134 37" fill="none" xmlns="http://www.w3.org/2000/svg">
<g clip-path="url(#clip0_1_9226)">
<path d="M18.5015 0C14.8423 0 11.2652 1.08009 8.22264 3.10371C5.18011 5.12731 2.80868 8.00353 1.40835 11.3687C0.00801569 14.7338 -0.358374 18.4367 0.355509 22.0091C1.0694 25.5816 2.83151 28.863 5.41897 31.4384C8.00645 34.014 11.3032 35.768 14.8921 36.4788C18.481 37.1893 22.201 36.8246 25.5818 35.4309C28.9626 34.0368 31.8518 31.6763 33.885 28.6478C35.918 25.6193 37.003 22.0587 37.003 18.4163C37.003 13.532 35.0538 8.84771 31.5841 5.39401C28.1143 1.94028 23.4085 0 18.5015 0ZM29.8666 21.1077C29.8666 21.476 28.1962 21.5286 28.1962 21.897C28.1962 22.2653 29.8483 22.7651 29.8483 23.273C29.8483 23.8938 26.4439 23.9858 26.4439 24.6068C26.4439 25.2699 29.0261 25.0645 29.0261 25.7828C29.0261 26.63 22.5402 26.2353 22.5402 27.1167C22.5402 27.4533 23.3702 27.5929 24.4089 27.7034C24.9798 27.7664 24.8554 28.0453 24.5305 28.2296C22.7147 29.3323 20.6287 29.9159 18.5015 29.9159C16.3744 29.9159 14.2884 29.3323 12.4726 28.2296C12.1502 28.0323 12.0233 27.7534 12.5942 27.7034C13.633 27.5929 14.4656 27.4403 14.4656 27.1167C14.4656 26.2353 7.97679 26.63 7.97679 25.7828C7.97679 25.0645 10.5617 25.2566 10.5617 24.6068C10.5617 23.9858 7.15484 23.8938 7.15484 23.273C7.15484 22.7651 8.80942 22.2732 8.80942 21.897C8.80942 21.5207 7.13633 21.4786 7.13633 21.1077C7.13633 20.7367 8.35745 20.4973 8.35745 20.2342C8.35745 19.737 6.93808 20.642 6.93808 18.4163C6.93808 15.3636 8.15642 12.4359 10.325 10.2774C12.4936 8.11878 15.4347 6.9061 18.5015 6.9061C21.5683 6.9061 24.5096 8.11878 26.6782 10.2774C28.8467 12.4359 30.0649 15.3636 30.0649 18.4163C30.0649 20.642 28.6457 19.7317 28.6457 20.2342C28.6457 20.4973 29.8666 20.7104 29.8666 21.1077Z" fill="#2563EB"/>
<path d="M53.0211 27.3569C54.1771 27.3569 55.2101 27.1627 56.1203 26.7745C57.0452 26.3862 57.8254 25.8755 58.4612 25.2429C59.0968 24.5956 59.552 23.891 59.8264 23.1286L57.1824 21.8989C56.8644 22.7043 56.3445 23.3732 55.6219 23.9052C54.9139 24.4229 54.047 24.6819 53.0211 24.6819C52.0097 24.6819 51.1212 24.4446 50.3553 23.97C49.5896 23.4954 48.9899 22.8411 48.5564 22.0068C48.123 21.1582 47.9064 20.1731 47.9064 19.0513C47.9064 17.9294 48.123 16.9515 48.5564 16.1173C48.9899 15.2687 49.5896 14.6143 50.3553 14.1541C51.1212 13.6795 52.0097 13.4422 53.0211 13.4422C54.047 13.4422 54.9139 13.7082 55.6219 14.2404C56.3445 14.7582 56.8644 15.4197 57.1824 16.2251L59.8264 14.9955C59.552 14.2332 59.0968 13.5357 58.4612 12.9029C57.8254 12.2557 57.0452 11.7379 56.1203 11.3496C55.2101 10.9612 54.1771 10.7671 53.0211 10.7671C51.8654 10.7671 50.7961 10.9756 49.8136 11.3927C48.8311 11.7954 47.9784 12.3707 47.2561 13.1186C46.5336 13.8521 45.97 14.7294 45.5655 15.7505C45.161 16.7573 44.9586 17.8575 44.9586 19.0513C44.9586 20.245 45.161 21.3524 45.5655 22.3736C45.97 23.3803 46.5336 24.2576 47.2561 25.0056C47.9784 25.7533 48.8311 26.336 49.8136 26.753C50.7961 27.1557 51.8654 27.3569 53.0211 27.3569Z" fill="#18181B"/>
<path d="M61.9812 27.0981H64.8204V10.7671H61.9812V27.0981Z" fill="#18181B"/>
<path d="M71.0179 27.3568C72.5495 27.3568 73.7775 26.8537 74.7022 25.8469V27.0981H77.3898V19.2885C77.3898 18.4687 77.1803 17.7424 76.7613 17.1096C76.3421 16.4768 75.7643 15.9878 75.0273 15.6426C74.305 15.283 73.4597 15.1033 72.4917 15.1033C71.3068 15.1033 70.252 15.3837 69.3273 15.9446C68.4026 16.5055 67.7668 17.2462 67.4201 18.1667L69.7391 19.2885C69.9558 18.7564 70.2953 18.3321 70.7577 18.0157C71.22 17.6849 71.762 17.5195 72.3831 17.5195C73.0334 17.5195 73.5536 17.6921 73.9436 18.0373C74.3482 18.368 74.5505 18.7851 74.5505 19.2885V19.6768L71.0395 20.2377C69.6524 20.4678 68.6265 20.9065 67.9618 21.5537C67.2973 22.2009 66.9648 23.0134 66.9648 23.9914C66.9648 25.027 67.3333 25.8469 68.0703 26.4508C68.8071 27.0549 69.7896 27.3568 71.0179 27.3568ZM69.9124 23.8836C69.9124 23.0639 70.4688 22.5461 71.5812 22.3304L74.5505 21.8342V22.3088C74.5505 23.1142 74.2688 23.7973 73.7052 24.3582C73.1561 24.9192 72.4338 25.1996 71.5381 25.1996C71.0613 25.1996 70.671 25.0845 70.3676 24.8545C70.0643 24.6099 69.9124 24.2863 69.9124 23.8836Z" fill="#18181B"/>
<path d="M80.0139 27.0983H82.8531V20.5615C82.8531 19.6699 83.0989 18.9795 83.5901 18.4905C84.0959 17.9871 84.7459 17.7354 85.5407 17.7354H86.5592V15.2329H85.8658C85.1433 15.2329 84.5075 15.3624 83.9584 15.6213C83.4096 15.8801 82.9832 16.3475 82.6797 17.0235V15.3624H80.0139V27.0983Z" fill="#18181B"/>
<path d="M88.1201 14.0464H90.9594V11.0261H88.1201V14.0464ZM88.1201 27.0983H90.9594V15.3624H88.1201V27.0983Z" fill="#18181B"/>
<path d="M98.9558 27.2278C99.4326 27.2278 99.9023 27.1917 100.365 27.1197V24.6821C100.09 24.7252 99.8371 24.7467 99.6061 24.7467C98.9124 24.7467 98.4067 24.5886 98.0889 24.2721C97.7709 23.9558 97.6121 23.5026 97.6121 22.9129V17.8864H100.321V15.3624H97.6121V12.6873H94.7729V13.5933C94.7729 14.1686 94.6139 14.6073 94.2961 14.9093C93.9783 15.2113 93.5302 15.3624 92.9524 15.3624H92.7356V17.8864H94.7729V23.0641C94.7729 24.3728 95.1341 25.394 95.8566 26.1273C96.5934 26.8609 97.6266 27.2278 98.9558 27.2278Z" fill="#18181B"/>
<path d="M103.964 31.8659C105.077 31.8659 106.001 31.5494 106.738 30.9167C107.49 30.2982 108.089 29.421 108.537 28.2847L113.674 15.3623H110.596L107.562 23.4523L104.506 15.3623H101.45L106.11 27.0982L105.85 27.7238C105.619 28.2128 105.351 28.6084 105.048 28.9103C104.759 29.2125 104.289 29.3634 103.639 29.3634C103.408 29.3634 103.162 29.3417 102.902 29.2988C102.642 29.27 102.411 29.2268 102.209 29.1693V31.5423C102.454 31.6574 102.729 31.7365 103.032 31.7796C103.336 31.8372 103.646 31.8659 103.964 31.8659Z" fill="#18181B"/>
<path d="M121.692 27.357C122.934 27.357 124.032 27.0983 124.986 26.5805C125.954 26.0627 126.712 25.3508 127.261 24.4448C127.811 23.5387 128.085 22.5103 128.085 21.3597V11.0261H125.137V21.2087C125.137 21.8847 124.986 22.4887 124.682 23.0209C124.393 23.5387 123.989 23.9485 123.469 24.2506C122.963 24.5382 122.37 24.6821 121.692 24.6821C121.027 24.6821 120.434 24.5382 119.914 24.2506C119.394 23.9485 118.982 23.5387 118.679 23.0209C118.39 22.4887 118.245 21.8847 118.245 21.2087V11.0261H115.298V21.3597C115.298 22.5103 115.573 23.5387 116.122 24.4448C116.67 25.3508 117.422 26.0627 118.375 26.5805C119.344 27.0983 120.449 27.357 121.692 27.357Z" fill="#18181B"/>
<path d="M131.028 27.0983H133.975V11.0261H131.028V27.0983Z" fill="#18181B"/>
</g>
<defs>
<clipPath id="clip0_1_9226">
<rect width="134" height="37" fill="white"/>
</clipPath>
</defs>
</svg>
