<svg width="16" height="21" viewBox="0 0 16 21" fill="none" xmlns="http://www.w3.org/2000/svg">
<path d="M8 10.5C8.55 10.5 9.021 10.304 9.413 9.912C9.80433 9.52067 10 9.05 10 8.5C10 7.95 9.80433 7.479 9.413 7.087C9.021 6.69567 8.55 6.5 8 6.5C7.45 6.5 6.97933 6.69567 6.588 7.087C6.196 7.479 6 7.95 6 8.5C6 9.05 6.196 9.52067 6.588 9.912C6.97933 10.304 7.45 10.5 8 10.5ZM8 20.5C5.31667 18.2167 3.31267 16.0957 1.988 14.137C0.662667 12.179 0 10.3667 0 8.7C0 6.2 0.804333 4.20833 2.413 2.725C4.021 1.24167 5.88333 0.5 8 0.5C10.1167 0.5 11.979 1.24167 13.587 2.725C15.1957 4.20833 16 6.2 16 8.7C16 10.3667 15.3377 12.179 14.013 14.137C12.6877 16.0957 10.6833 18.2167 8 20.5Z" fill="black"/>
</svg>
