<svg width="24" height="17" viewBox="0 0 24 17" fill="none" xmlns="http://www.w3.org/2000/svg">
<path d="M8.5 4.15002H14.5M19 11.65L15 4.15002H14.5M14.5 4.15002L16.5 1.15002M16.5 1.15002H14M16.5 1.15002H18.5M5 15.65C6.06087 15.65 7.07828 15.2286 7.82843 14.4785C8.57857 13.7283 9 12.7109 9 11.65C9 10.5892 8.57857 9.57174 7.82843 8.8216C7.07828 8.07145 6.06087 7.65002 5 7.65002C3.93913 7.65002 2.92172 8.07145 2.17157 8.8216C1.42143 9.57174 1 10.5892 1 11.65C1 12.7109 1.42143 13.7283 2.17157 14.4785C2.92172 15.2286 3.93913 15.65 5 15.65V15.65Z" stroke="#505050" stroke-width="1.5" stroke-linecap="round" stroke-linejoin="round"/>
<path d="M5 11.65L8.5 4.15002L12 10.65H15M8.5 4.15002C8.167 3.15002 7 1.15002 5 1.15002" stroke="#505050" stroke-width="1.5" stroke-linecap="round" stroke-linejoin="round"/>
<path d="M19 15.65C20.0609 15.65 21.0783 15.2286 21.8284 14.4785C22.5786 13.7283 23 12.7109 23 11.65C23 10.5892 22.5786 9.57174 21.8284 8.8216C21.0783 8.07145 20.0609 7.65002 19 7.65002C17.9391 7.65002 16.9217 8.07145 16.1716 8.8216C15.4214 9.57174 15 10.5892 15 11.65C15 12.7109 15.4214 13.7283 16.1716 14.4785C16.9217 15.2286 17.9391 15.65 19 15.65Z" stroke="#505050" stroke-width="1.5" stroke-linecap="round" stroke-linejoin="round"/>
</svg>
