<svg width="18" height="21" viewBox="0 0 18 21" fill="none" xmlns="http://www.w3.org/2000/svg">
<path d="M2 20.5C1.45 20.5 0.979 20.3043 0.587 19.913C0.195667 19.521 0 19.05 0 18.5V4.5C0 3.95 0.195667 3.47933 0.587 3.088C0.979 2.696 1.45 2.5 2 2.5H3V1.475C3 1.19167 3.09567 0.958333 3.287 0.775C3.479 0.591667 3.71667 0.5 4 0.5C4.28333 0.5 4.521 0.595667 4.713 0.787C4.90433 0.979 5 1.21667 5 1.5V2.5H13V1.475C13 1.19167 13.096 0.958333 13.288 0.775C13.4793 0.591667 13.7167 0.5 14 0.5C14.2833 0.5 14.5207 0.595667 14.712 0.787C14.904 0.979 15 1.21667 15 1.5V2.5H16C16.55 2.5 17.021 2.696 17.413 3.088C17.8043 3.47933 18 3.95 18 4.5V18.5C18 19.05 17.8043 19.521 17.413 19.913C17.021 20.3043 16.55 20.5 16 20.5H2ZM2 18.5H16V8.5H2V18.5Z" fill="black"/>
</svg>
