<svg width="18" height="17" viewBox="0 0 18 17" fill="none" xmlns="http://www.w3.org/2000/svg">
<path d="M3 14.4V15.4C3 15.6834 2.90433 15.9207 2.713 16.112C2.521 16.304 2.28333 16.4 2 16.4H1C0.716667 16.4 0.479333 16.304 0.288 16.112C0.0960001 15.9207 0 15.6834 0 15.4V7.40002L2.1 1.40002C2.2 1.10002 2.37933 0.858358 2.638 0.675025C2.896 0.491691 3.18333 0.400024 3.5 0.400024H14.5C14.8167 0.400024 15.1043 0.491691 15.363 0.675025C15.621 0.858358 15.8 1.10002 15.9 1.40002L18 7.40002V15.4C18 15.6834 17.904 15.9207 17.712 16.112C17.5207 16.304 17.2833 16.4 17 16.4H16C15.7167 16.4 15.4793 16.304 15.288 16.112C15.096 15.9207 15 15.6834 15 15.4V14.4H3ZM2.8 5.40002H15.2L14.15 2.40002H3.85L2.8 5.40002ZM4.5 11.4C4.91667 11.4 5.27067 11.254 5.562 10.962C5.854 10.6707 6 10.3167 6 9.90002C6 9.48336 5.854 9.12936 5.562 8.83802C5.27067 8.54602 4.91667 8.40002 4.5 8.40002C4.08333 8.40002 3.72933 8.54602 3.438 8.83802C3.146 9.12936 3 9.48336 3 9.90002C3 10.3167 3.146 10.6707 3.438 10.962C3.72933 11.254 4.08333 11.4 4.5 11.4ZM13.5 11.4C13.9167 11.4 14.2707 11.254 14.562 10.962C14.854 10.6707 15 10.3167 15 9.90002C15 9.48336 14.854 9.12936 14.562 8.83802C14.2707 8.54602 13.9167 8.40002 13.5 8.40002C13.0833 8.40002 12.7293 8.54602 12.438 8.83802C12.146 9.12936 12 9.48336 12 9.90002C12 10.3167 12.146 10.6707 12.438 10.962C12.7293 11.254 13.0833 11.4 13.5 11.4Z" fill="#505050"/>
</svg>
