<svg width="14" height="15" viewBox="0 0 14 15" fill="none" xmlns="http://www.w3.org/2000/svg">
<path fill-rule="evenodd" clip-rule="evenodd" d="M7 0.300049C3.13558 0.300049 0 3.43562 0 7.30005C0 11.1645 3.13558 14.3 7 14.3C10.8568 14.3 14 11.1645 14 7.30005C14 3.43562 10.8568 0.300049 7 0.300049ZM11.6236 3.52673C12.4588 4.54408 12.9599 5.84234 12.9751 7.24689C12.7777 7.20896 10.8037 6.80655 8.81453 7.05711C8.76899 6.95841 8.73101 6.85209 8.68547 6.74582C8.56398 6.45734 8.42734 6.16124 8.29067 5.88032C10.4924 4.98445 11.4946 3.69376 11.6236 3.52673ZM7 1.33259C8.51843 1.33259 9.9078 1.902 10.9631 2.83584C10.8568 2.98769 9.95334 4.19484 7.82753 4.99202C6.84814 3.19267 5.76249 1.71979 5.59545 1.49202C6.04336 1.38573 6.51411 1.33259 7 1.33259ZM4.45664 1.89441C4.61606 2.10699 5.67897 3.58747 6.67354 5.34884C3.87961 6.0929 1.41215 6.07772 1.14642 6.07772C1.53362 4.22521 2.78633 2.684 4.45664 1.89441ZM1.01735 7.30766C1.01735 7.24689 1.01735 7.18617 1.01735 7.12544C1.27549 7.13301 4.17571 7.17099 7.15943 6.27512C7.33408 6.60915 7.4935 6.95079 7.64536 7.29244C7.56941 7.31523 7.48589 7.33802 7.40998 7.36077C4.32755 8.35534 2.68764 11.0734 2.55098 11.3011C1.60195 10.2458 1.01735 8.84127 1.01735 7.30766ZM7 13.2827C5.6182 13.2827 4.34273 12.812 3.33297 12.0224C3.43926 11.8022 4.65399 9.46384 8.02493 8.28705C8.04011 8.27944 8.04773 8.27944 8.06291 8.27187C8.90562 10.4508 9.24731 12.2805 9.33839 12.8044C8.61713 13.1156 7.82753 13.2827 7 13.2827ZM10.333 12.2578C10.2722 11.8933 9.95334 10.1471 9.17136 7.99852C11.0467 7.70242 12.6865 8.18835 12.8916 8.25669C12.6334 9.91936 11.6768 11.3543 10.333 12.2578Z" fill="#98A2B3"/>
</svg>
