<svg width="14" height="15" viewBox="0 0 14 15" fill="none" xmlns="http://www.w3.org/2000/svg">
<path d="M12.9637 0.300049H1.03359C0.462109 0.300049 0 0.751221 0 1.30903V13.2883C0 13.8461 0.462109 14.3 1.03359 14.3H12.9637C13.5352 14.3 14 13.8461 14 13.2911V1.30903C14 0.751221 13.5352 0.300049 12.9637 0.300049ZM4.15352 12.2301H2.07539V5.54731H4.15352V12.2301ZM3.11445 4.63677C2.44727 4.63677 1.90859 4.0981 1.90859 3.43364C1.90859 2.76919 2.44727 2.23052 3.11445 2.23052C3.77891 2.23052 4.31758 2.76919 4.31758 3.43364C4.31758 4.09536 3.77891 4.63677 3.11445 4.63677ZM11.9301 12.2301H9.85469V8.98169C9.85469 8.20786 9.84101 7.20981 8.77461 7.20981C7.69453 7.20981 7.53047 8.05474 7.53047 8.927V12.2301H5.45781V5.54731H7.44844V6.4606H7.47578C7.75195 5.9356 8.43008 5.38052 9.43906 5.38052C11.5418 5.38052 11.9301 6.76411 11.9301 8.56333V12.2301Z" fill="#98A2B3"/>
</svg>
