<svg width="14" height="12" viewBox="0 0 14 12" fill="none" xmlns="http://www.w3.org/2000/svg">
<path d="M4.40426 11.9876C9.68598 11.9876 12.5757 7.61069 12.5757 3.8162C12.5757 3.69315 12.5729 3.56737 12.5675 3.44432C13.1296 3.0378 13.6147 2.53426 14 1.95737C13.4765 2.19029 12.9206 2.34242 12.3514 2.40854C12.9507 2.04931 13.3995 1.48497 13.6145 0.82014C13.0507 1.15427 12.4341 1.38997 11.7912 1.51713C11.358 1.05685 10.7852 0.752094 10.1615 0.649973C9.53772 0.547852 8.89769 0.654056 8.34035 0.952166C7.783 1.25028 7.33938 1.72369 7.07808 2.29921C6.81677 2.87473 6.75233 3.5203 6.89473 4.13612C5.75312 4.07883 4.6363 3.78227 3.61666 3.26567C2.59702 2.74906 1.69732 2.02395 0.975898 1.13733C0.609233 1.7695 0.497033 2.51757 0.662101 3.2295C0.82717 3.94142 1.25712 4.56379 1.86457 4.9701C1.40853 4.95562 0.962486 4.83284 0.563281 4.6119V4.64745C0.562873 5.31086 0.792224 5.95395 1.21235 6.46739C1.63247 6.98083 2.21744 7.33294 2.86781 7.46385C2.44537 7.57943 2.00199 7.59628 1.57199 7.51307C1.75552 8.08361 2.11258 8.58263 2.59337 8.94047C3.07415 9.29831 3.65465 9.49712 4.25387 9.50916C3.23658 10.3083 1.97993 10.7417 0.686328 10.7396C0.456917 10.7393 0.227733 10.7252 0 10.6975C1.31417 11.5406 2.84289 11.9884 4.40426 11.9876Z" fill="#98A2B3"/>
</svg>
