<svg width="24" height="21" viewBox="0 0 24 21" fill="none" xmlns="http://www.w3.org/2000/svg">
<path d="M7.55016 20.25C16.6045 20.25 21.5583 12.7467 21.5583 6.24186C21.5583 6.03092 21.5536 5.8153 21.5442 5.60436C22.5079 4.90746 23.3395 4.04425 24 3.0553C23.1025 3.4546 22.1496 3.71538 21.1739 3.82874C22.2013 3.21291 22.9705 2.24547 23.3391 1.10577C22.3726 1.67856 21.3156 2.08261 20.2134 2.30061C19.4708 1.51156 18.489 0.989116 17.4197 0.814051C16.3504 0.638986 15.2532 0.82105 14.2977 1.3321C13.3423 1.84314 12.5818 2.65471 12.1338 3.64131C11.6859 4.62792 11.5754 5.73462 11.8195 6.7903C9.86249 6.69209 7.94794 6.1837 6.19998 5.2981C4.45203 4.41249 2.90969 3.16944 1.67297 1.64952C1.0444 2.73324 0.852057 4.01565 1.13503 5.23609C1.418 6.45654 2.15506 7.52345 3.19641 8.21999C2.41463 8.19517 1.64998 7.98468 0.965625 7.60592V7.66686C0.964925 8.80415 1.3581 9.90659 2.07831 10.7868C2.79852 11.667 3.80132 12.2706 4.91625 12.495C4.19206 12.6931 3.43198 12.722 2.69484 12.5794C3.00945 13.5574 3.62157 14.4129 4.44577 15.0263C5.26997 15.6398 6.26512 15.9806 7.29234 16.0012C5.54842 17.3711 3.39417 18.1141 1.17656 18.1106C0.783287 18.11 0.390399 18.0859 0 18.0384C2.25286 19.4837 4.87353 20.2514 7.55016 20.25Z" fill="#98A2B3"/>
</svg>
